<svg width="200" height="200" viewBox="0 0 200 200" fill="none" xmlns="http://www.w3.org/2000/svg">
<rect width="200" height="200" rx="50" fill="white"/>
<path d="M17.744 117.08C35.28 118.04 47.152 118.52 53.36 118.52C54.832 118.52 55.984 118.104 56.816 117.272C57.712 116.376 58.16 115.192 58.16 113.72V105.08H36.08C29.36 105.08 24.464 103.576 21.392 100.568C18.384 97.496 16.88 92.6 16.88 85.88V83C16.88 76.28 18.384 71.416 21.392 68.408C24.464 65.336 29.36 63.8 36.08 63.8H69.776V77.24H39.92C36.08 77.24 34.16 79.16 34.16 83V84.92C34.16 88.76 36.08 90.68 39.92 90.68H57.2C63.472 90.68 68.08 92.152 71.024 95.096C73.968 98.04 75.44 102.648 75.44 108.92V113.72C75.44 119.992 73.968 124.6 71.024 127.544C68.08 130.488 63.472 131.96 57.2 131.96C53.936 131.96 50.48 131.896 46.832 131.768L38 131.384C31.472 131.064 24.72 130.616 17.744 130.04V117.08Z" fill="black"/>
<path d="M105.192 131H87.9125V63.8H141.192V77.24H105.192V93.08H133.512V106.52H105.192V131Z" fill="black"/>
<path d="M183.432 131H148.872V117.56H157.512V77.24H148.872V63.8H183.432V77.24H174.792V117.56H183.432V131Z" fill="black"/>
</svg>
