<svg width="133" height="143" viewBox="0 0 133 143" fill="none" xmlns="http://www.w3.org/2000/svg">
<path d="M87.1235 0.500061H45.055C44.7456 0.500042 50.6229 2.35601 53.4068 5.75861C56.1908 9.16122 73.2038 39.166 73.2038 39.166C73.2038 39.166 60.8307 46.8992 61.4493 46.8992H101.662C101.662 46.8992 115.582 18.7504 115.891 18.441C116.2 18.1317 105.065 23.6996 105.065 23.6996C94.2381 6.06795 92.3821 0.500056 87.1235 0.500061Z" fill="#157EC2" stroke="#157EC2"/>
<path d="M35.7634 5.78814L16.5851 37.9582L30.8142 46.6194H48.7552L60.5096 26.5131L49.0645 7.33478C44.4246 2.38556 39.0539 1.34895 35.7634 5.78814Z" fill="#157EC2" stroke="#157EC2"/>
<path d="M116.189 92.3704V46.8992C121.762 56.1676 124.084 60.1765 130.727 71.0268C131.304 72.2827 131.596 73.052 131.964 74.7387C132.185 76.4436 132.366 77.3095 131.964 79.9973C130.973 82.8444 129.894 84.3198 127.324 86.8025C123.978 89.6834 121.52 90.8889 116.189 92.3704Z" fill="#F54337" stroke="#F54337"/>
<path d="M121.138 94.8542C121.408 94.8197 129.372 90.1899 129.18 90.5236C128.989 90.8573 110.93 122.384 110.93 122.384C109.306 124.545 108.148 125.665 106.599 127.024C105.144 128.209 103.915 128.476 101.65 128.88L84.3278 128.571C84.3278 128.571 84.4165 141.872 84.3278 142.491C84.2391 143.109 66.0775 113.105 66.0775 113.105C66.0775 113.105 84.3278 82.1718 84.3278 82.7904C84.3278 83.4091 84.4165 96.7102 84.4165 96.7102H112.786C116.08 96.3591 117.935 96.24 121.138 94.8542Z" fill="#F54337" stroke="#F54337"/>
<path d="M22.4488 98.8787H60.3742L60.647 130.43H28.4514C24.2599 129.643 22.8305 128.568 21.0846 126.1L2.53118 90.8362C2.53118 90.8362 0.894109 87.4335 0.621265 86.5056C0.348421 85.5776 0.621261 83.103 0.621265 82.7936C0.621269 82.4843 2.53118 76.9164 2.53118 77.2257C2.53118 77.5351 2.7463 79.8496 2.80402 80.6283C2.86174 81.4071 2.91022 81.9033 3.07687 82.7936C4.36158 87.7315 5.77606 90.0428 9.62513 93.3108C13.5524 96.9007 16.4284 98.0302 22.4488 98.8787Z" fill="#FCBE1D" stroke="#FCBE1D"/>
<path d="M15.606 83.6701C25.47 84.2101 32.148 84.4801 35.64 84.4801C36.468 84.4801 37.116 84.2461 37.584 83.7781C38.088 83.2741 38.34 82.6081 38.34 81.7801V76.9201H25.92C22.14 76.9201 19.386 76.0741 17.658 74.3821C15.966 72.6541 15.12 69.9001 15.12 66.1201V64.5001C15.12 60.7201 15.966 57.9841 17.658 56.2921C19.386 54.5641 22.14 53.7001 25.92 53.7001H44.874V61.2601H28.08C25.92 61.2601 24.84 62.3401 24.84 64.5001V65.5801C24.84 67.7401 25.92 68.8201 28.08 68.8201H37.8C41.328 68.8201 43.92 69.6481 45.576 71.3041C47.232 72.9601 48.06 75.5521 48.06 79.0801V81.7801C48.06 85.3081 47.232 87.9001 45.576 89.5561C43.92 91.2121 41.328 92.0401 37.8 92.0401C35.964 92.0401 34.02 92.0041 31.968 91.9321L27 91.7161C23.328 91.5361 19.53 91.2841 15.606 90.9601V83.6701ZM64.7958 91.5001H55.0758V53.7001H85.0458V61.2601H64.7958V70.1701H80.7258V77.7301H64.7958V91.5001ZM108.806 91.5001H89.3658V83.9401H94.2258V61.2601H89.3658V53.7001H108.806V61.2601H103.946V83.9401H108.806V91.5001Z" fill="#0C0C0C"/>
</svg>
